<svg xmlns="http://www.w3.org/2000/svg" xml:space="preserve" width="128" height="128" viewBox="0 0 33.87 33.87"><style>@media(prefers-color-scheme:dark){path{fill:#fff}}</style><path d="M23.54 7.47a3 3 0 0 0-2.66 1.38 6 6 0 0 0-.87 3.22 5.5 5.5 0 0 0 1.03 3.28q1.02 1.43 2.91 1.94A18 18 0 0 1 22.37 22q-1.02 1.9-2.51 1.9-1.02 0-1.9-1.54a10 10 0 0 1-1.02-3.84 20 20 0 0 0 1.38-6.5q0-.98-.2-1.23-.15-.25-.56-.25-1.29 0-2.2 1.68a11 11 0 0 0-1.23 3.38q-.3 1.65-.3 3.12 0 1.44.25 2.72-1.5 2.45-2.51 2.45c-.68 0-1.1-.62-1.59-1.74-1.8-4.05-.15-9.73.8-11.6.41-.6.7-.87 2.01-1.8q-.22-.57-.68-.9c-.38.68-1.67 1.17-2.6 1.34-.66.1-1.21.2-1.71.57-1.48 1.13-2.96 4.06-2.97 8.19 0 5.46 2.53 8.45 5.36 8.45q2.25 0 4.35-3.12 1.17 3.12 3.84 3.12t4.4-2.5a18 18 0 0 0 2.56-6.35 9 9 0 0 0 6.8-3.02q.67-.72.67-1.23t-.36-.51q-.3 0-1.23.92c-1 1-2.34 1.84-3.99 1.84q-.72 0-1.48-.25.15-1.44.15-2.77 0-5.06-2.36-5.06M23.2 9.4q1.17 0 1.17 4.2 0 .52-.05.76a4.4 4.4 0 0 1-1.58-3.22q0-1.74.46-1.74"/></svg>
