<svg version="1.1" viewBox="0 0 512 512" xml:space="preserve" xmlns="http://www.w3.org/2000/svg" xmlns:xlink="http://www.w3.org/1999/xlink"><defs><clipPath id="c"><use xlink:href="#a"/></clipPath></defs><g transform="matrix(1.431 .269 -.269 1.431 -122.6 -73.85)" stroke-width=".6865"><path id="a" d="m134.2 57.13c13.63.895 14.18-2.621 26.64-2.227 3.535 22.48-.77 38.05 9.137 56.81 86.38 153.3 215.8 103.5 243.7 98.36s34.76-4.659 60.02-3.573c12.14 9.56 12.9 16.65 11.43 25.01-21.09 51.33-58.69 75.44-155.8 81.46s-199.2-70.84-210.6-137.4c-3.525-20.54 2.012-31.46 6.989-42.54 7.923-24.06 21.68-54.73 8.437-75.86z" fill="#f2d23b" stroke-width=".6865"/><path d="m545.1 79.65a191 178.8 0 01-190.4 178.8 191 178.8 0 01-191.6-177.6 191 178.8 0 01189.1-180 191 178.8 0 01192.9 176.4l-191 2.353z" clip-path="url(#c)" fill="#f5de46"/><path d="m194.1 79.65a38.3 37.36 0 01-38.17 37.36 38.3 37.36 0 01-38.42-37.11 38.3 37.36 0 0137.92-37.6 38.3 37.36 0 0138.67 36.86l-38.29.492z" clip-path="url(#c)" fill="#c8cb3c"/><ellipse cx="505.9" cy="199.2" rx="33.6" ry="39.94" clip-path="url(#c)" fill="#7e5f43"/></g></svg>
