<?xml version="1.0" encoding="UTF-8" standalone="no"?>
<!-- Created with Inkscape (http://www.inkscape.org/) -->

<svg
   width="855.43201"
   height="137.75391"
   viewBox="0 0 226.33304 36.447386"
   version="1.1"
   id="svg1"
   xml:space="preserve"
   xmlns="http://www.w3.org/2000/svg"
   xmlns:svg="http://www.w3.org/2000/svg"><defs
     id="defs1" /><g
     id="layer1"
     transform="translate(-16.257419,-114.06798)"><path
       id="path60"
       style="font-size:60.2439px;font-family:Cookie;-inkscape-font-specification:'Cookie, @wght=700,wdth=100';font-variation-settings:'wdth' 100, 'wght' 700;display:inline;stroke-width:6.27581;stroke-linejoin:round"
       d="m 54.305729,114.06797 c -0.883577,0 -1.746608,0.32117 -2.590023,0.96377 -3.654797,2.81138 -5.482352,9.358 -5.482352,19.63963 v 3.49436 c 0,1.36553 -0.12076,3.41378 -0.361735,6.14484 -0.200813,2.69089 -0.300757,4.27693 -0.300757,4.75888 0,0.44179 0.441407,0.80356 1.324984,1.08469 0.883577,0.24098 1.807504,0.36122 2.771407,0.36122 0.642601,0 0.963765,-0.56217 0.963765,-1.68672 l -0.05994,-1.86758 c 0,-1.24504 0.120243,-2.5703 0.361219,-3.97599 0.120487,-0.76309 1.164658,-2.51048 3.132625,-5.24154 1.967967,-2.77122 3.172977,-4.15685 3.614766,-4.15685 0.481951,0 0.722954,0.66314 0.722954,1.98851 0,1.32537 -0.12076,3.33355 -0.361735,6.02444 -0.200813,2.65073 -0.300757,4.57823 -0.300757,5.78311 0,1.16471 0.140541,1.88772 0.42168,2.16886 0.803252,0.6426 1.987964,0.96376 3.554305,0.96376 1.772365,0 3.885887,-2.29239 6.328812,-6.79855 0.247479,1.54744 0.868413,2.97056 1.864486,4.26847 1.325366,1.68683 3.112325,2.53008 5.36143,2.53008 3.895772,0 7.168823,-2.14872 9.819555,-6.44612 0.219822,-0.36036 0.377128,-0.66918 0.577226,-1.01337 -0.03479,0.43612 -0.05291,0.77675 -0.09508,1.2547 -0.200813,2.69089 -0.301274,4.27693 -0.301274,4.75888 0,0.44179 0.441923,0.80356 1.3255,1.08469 0.883577,0.24098 1.806988,0.36122 2.770891,0.36122 0.642601,0 0.964282,-0.56217 0.964282,-1.68672 l -0.06046,-1.86758 c 0,-1.24504 0.120759,-2.5703 0.361735,-3.97599 0.120487,-0.76309 1.164657,-2.51048 3.132625,-5.24154 1.967967,-2.77122 3.172461,-4.15685 3.61425,-4.15685 0.481951,0 0.722953,0.66314 0.722953,1.98851 0,1.32537 -0.120243,3.33355 -0.361218,6.02444 -0.200813,2.65073 -0.301274,4.57823 -0.301274,5.78311 0,1.16471 0.140541,1.88772 0.42168,2.16886 0.803252,0.6426 1.987961,0.96376 3.554306,0.96376 1.85739,0 4.08585,-2.49456 6.67969,-7.44347 0.18466,2.00373 0.51592,3.63301 1.03147,4.79299 0.80325,1.76715 2.4101,2.65048 4.81986,2.65048 2.40975,0 4.81926,-0.964 7.22901,-2.89181 2.40976,-1.96797 3.85577,-4.73924 4.33772,-8.31371 1.92688,-0.7099 3.41583,-1.41968 4.51756,-2.12958 -0.33885,1.26554 -0.54157,2.58856 -0.54157,3.99717 0,3.21301 0.60224,5.58296 1.80712,7.10913 1.20488,1.48602 2.61082,2.2288 4.21732,2.2288 1.60651,0 2.91197,-0.62255 3.91604,-1.86759 1.04423,-1.28521 2.08839,-3.233 3.13262,-5.84357 -0.0803,1.92781 -0.1204,3.47429 -0.1204,4.639 0,1.12455 0.14053,1.82726 0.42167,2.1084 0.80325,0.6426 1.98797,0.96376 3.55431,0.96376 1.73329,0 3.79246,-2.1928 6.16707,-6.50244 -0.01,0.11102 -0.0122,0.18427 -0.0222,0.29765 -0.20081,2.69089 -0.30127,4.27693 -0.30127,4.75888 0,0.44179 0.44192,0.80356 1.3255,1.08469 0.88357,0.24098 1.80698,0.36122 2.77089,0.36122 0.6426,0 0.96428,-0.56217 0.96428,-1.68672 l -0.0605,-1.86758 c 0,-1.24504 0.12025,-2.5703 0.36122,-3.97599 0.12049,-0.76309 1.16517,-2.51048 3.13314,-5.24154 1.96797,-2.77122 3.17246,-4.15685 3.61425,-4.15685 0.48195,0 0.72296,0.66314 0.72296,1.98851 0,1.32537 -0.12025,3.33355 -0.36122,6.02444 -0.20081,2.65073 -0.30128,4.57823 -0.30128,5.78311 0,1.16471 0.14054,1.88772 0.42168,2.16886 0.80325,0.6426 1.98797,0.96376 3.55431,0.96376 1.84002,0 4.04512,-2.45496 6.60786,-7.3117 0.21006,2.19623 0.77198,3.90001 1.70584,5.0829 1.20488,1.48602 2.61082,2.2288 4.21732,2.2288 1.60651,0 2.91145,-0.62255 3.91552,-1.86759 1.04423,-1.28521 2.0884,-3.233 3.13263,-5.84357 -0.0803,1.92781 -0.12041,3.47429 -0.12041,4.639 0,1.12455 0.14054,1.82726 0.42168,2.1084 0.80325,0.6426 1.98796,0.96376 3.5543,0.96376 1.73316,0 3.7927,-2.19243 6.16707,-6.50141 -0.01,0.11065 -0.0123,0.18364 -0.0222,0.29662 -0.20081,2.69089 -0.30128,4.27693 -0.30128,4.75888 0,0.44179 0.44193,0.80356 1.32551,1.08469 0.88357,0.24098 1.80749,0.36122 2.7714,0.36122 0.6426,0 0.96377,-0.56217 0.96377,-1.68672 l -0.06,-1.86758 c 0,-1.24504 0.12025,-2.5703 0.36122,-3.97599 0.12049,-0.76309 1.16466,-2.51048 3.13263,-5.24154 1.96797,-2.77122 3.17297,-4.15685 3.61476,-4.15685 0.48195,0 0.72296,0.66314 0.72296,1.98851 0,1.32537 -0.12077,3.33355 -0.36174,6.02444 -0.20081,2.65073 -0.30127,4.57823 -0.30127,5.78311 0,1.16471 0.14054,1.88772 0.42168,2.16886 0.80325,0.6426 1.98847,0.96376 3.55482,0.96376 1.83996,0 4.04521,-2.45472 6.60786,-7.31118 0.2101,2.19599 0.77206,3.89958 1.70584,5.08238 1.20488,1.48602 2.61029,2.2288 4.2168,2.2288 1.6065,0 2.91197,-0.62255 3.91604,-1.86759 1.04423,-1.28521 2.0884,-3.233 3.13263,-5.84357 -0.0803,1.92781 -0.12041,3.47429 -0.12041,4.639 0,1.12455 0.14054,1.82726 0.42168,2.1084 0.80325,0.6426 1.98796,0.96376 3.5543,0.96376 4.60721,0 7.26345,-12.31888 3.61477,-5.60276 -1.20488,1.64669 -2.14858,2.4905 -2.83135,2.5306 -0.24097,0 -0.36174,-0.54239 -0.36174,-1.62678 0,-5.62276 0.18063,-8.89581 0.54209,-9.81955 0.28114,-0.52211 0.52214,-1.36588 0.72295,-2.5306 0.24097,-1.16471 0.36174,-1.94758 0.36174,-2.34921 0,-1.52618 -0.30139,-2.28926 -0.90382,-2.28926 -0.56228,0 -1.26499,0.32115 -2.1084,0.96376 -0.80325,0.60243 -1.36542,1.12452 -1.68672,1.56631 -1.60651,-1.68683 -3.05252,-2.53007 -4.33772,-2.53007 -2.97203,0 -5.38205,1.24508 -7.22953,3.73517 -1.50208,2.06954 -2.34254,4.41792 -2.59623,7.01456 -0.98875,2.08297 -1.98914,3.91073 -3.00653,5.33507 -1.20488,1.64669 -2.14859,2.4905 -2.83135,2.5306 -0.24098,0 -0.36122,-0.44192 -0.36122,-1.3255 0,-0.92374 0.18061,-3.09276 0.54208,-6.50658 0.40163,-3.45398 0.60255,-6.06442 0.60255,-7.83157 0,-0.84342 -0.34146,-1.54613 -1.02423,-2.1084 -0.6426,-0.56228 -1.38591,-0.84335 -2.22932,-0.84335 -0.84341,0 -1.8069,0.58246 -2.89129,1.74718 -1.04423,1.16471 -2.3294,2.99175 -3.85558,5.48183 -1.52618,2.49008 -2.36995,3.85593 -2.5306,4.09691 0,-0.88358 0.10047,-2.47013 0.30128,-4.7594 0.80325,-1.88764 1.20509,-3.89582 1.20509,-6.02444 0,-0.44179 -0.0604,-0.74317 -0.18087,-0.90382 -0.12049,-0.16067 -0.42187,-0.24081 -0.90382,-0.24081 -0.44179,0 -1.18457,0.38154 -2.2288,1.14463 -1.00407,0.76309 -1.70677,1.34555 -2.1084,1.74718 -0.40163,0.40163 -0.60255,1.56603 -0.60255,3.49384 v 3.55483 c 0,0.4719 -0.0337,1.13442 -0.0625,1.7694 -0.93168,1.92263 -1.87225,3.63763 -2.82928,4.97747 -1.20488,1.64669 -2.14859,2.4905 -2.83135,2.5306 -0.24097,0 -0.36174,-0.54239 -0.36174,-1.62678 0,-5.62276 0.18115,-8.89581 0.54261,-9.81955 0.28114,-0.52211 0.52214,-1.36588 0.72295,-2.5306 0.24097,-1.16471 0.36122,-1.94758 0.36122,-2.34921 0,-1.52618 -0.30138,-2.28926 -0.90382,-2.28926 -0.56227,0 -1.26499,0.32115 -2.1084,0.96376 -0.80325,0.60243 -1.36542,1.12452 -1.68672,1.56631 -1.60651,-1.68683 -3.05252,-2.53007 -4.33772,-2.53007 -2.97203,0 -5.38154,1.24508 -7.22902,3.73517 -1.50189,2.06927 -2.34241,4.41729 -2.59622,7.01352 -0.98892,2.08345 -1.98897,3.91152 -3.00654,5.33611 -1.20488,1.64669 -2.14859,2.4905 -2.83135,2.5306 -0.24097,0 -0.36173,-0.44192 -0.36173,-1.3255 0,-0.92374 0.18062,-3.09276 0.54208,-6.50658 0.40163,-3.45398 0.60255,-6.06442 0.60255,-7.83157 0,-0.84342 -0.34146,-1.54613 -1.02423,-2.1084 -0.6426,-0.56228 -1.38539,-0.84335 -2.2288,-0.84335 -0.84341,0 -1.80742,0.58246 -2.89181,1.74718 -1.04423,1.16471 -2.3294,2.99175 -3.85558,5.48183 -1.52618,2.49008 -2.36943,3.85593 -2.53008,4.09691 0,-0.88358 0.10046,-2.47013 0.30127,-4.7594 0.80325,-1.88764 1.20458,-3.89582 1.20458,-6.02444 0,-0.44179 -0.0604,-0.74317 -0.18087,-0.90382 -0.12049,-0.16067 -0.42135,-0.24081 -0.9033,-0.24081 -0.44179,0 -1.18509,0.38154 -2.22932,1.14463 -1.00407,0.76309 -1.70677,1.34555 -2.1084,1.74718 -0.40162,0.40163 -0.60255,1.56603 -0.60255,3.49384 v 3.55483 c 0,0.47217 -0.0337,1.13499 -0.0625,1.77043 -0.93152,1.92217 -1.87191,3.63685 -2.82876,4.97644 -1.20487,1.64669 -2.1491,2.4905 -2.83187,2.5306 -0.24097,0 -0.36122,-0.54239 -0.36122,-1.62678 0,-5.62276 0.18063,-8.89581 0.54209,-9.81955 0.28114,-0.52211 0.52214,-1.36588 0.72295,-2.5306 0.24097,-1.16471 0.36173,-1.94758 0.36173,-2.34921 0,-1.52618 -0.30138,-2.28926 -0.90382,-2.28926 -0.56227,0 -1.26499,0.32115 -2.1084,0.96376 -0.80325,0.60243 -1.36593,1.12452 -1.68723,1.56631 -1.60651,-1.68683 -3.052,-2.53007 -4.3372,-2.53007 -2.97203,0 -5.38206,1.24508 -7.22954,3.73517 -0.53639,0.73903 -0.96742,1.52229 -1.34462,2.32854 -0.33029,0.16751 -0.32926,0.14755 -0.88418,0.44235 -1.24504,0.68276 -2.69105,1.26523 -4.33772,1.74718 -0.0402,-2.40976 -0.66271,-4.2774 -1.86759,-5.60276 -1.20488,-1.36553 -2.73106,-2.04794 -4.57853,-2.04794 -1.16472,0 -2.12872,0.16033 -2.89181,0.48163 1.12455,-4.13675 1.68723,-7.75127 1.68723,-10.84379 0,-1.40569 -0.18113,-2.59039 -0.5426,-3.5543 -0.3213,-0.9639 -0.68254,-1.44591 -1.08417,-1.44591 -0.84341,0 -1.74705,0.54239 -2.71095,1.62678 -0.92374,1.04423 -1.82736,2.5704 -2.71094,4.57853 -0.88357,1.96797 -1.60658,4.67885 -2.16886,8.13284 -0.56227,3.45398 -0.84336,7.10857 -0.84336,10.96418 0,0.14817 0.0102,0.26983 0.0114,0.41497 -0.95562,1.98923 -1.92087,3.75209 -2.90318,5.12733 -1.20487,1.64669 -2.14859,2.4905 -2.83136,2.5306 -0.24097,0 -0.36173,-0.44192 -0.36173,-1.3255 0,-0.92374 0.18114,-3.09276 0.5426,-6.50658 0.40163,-3.45398 0.60203,-6.06442 0.60203,-7.83157 0,-0.84342 -0.34146,-1.54613 -1.02423,-2.1084 -0.6426,-0.56228 -1.38539,-0.84335 -2.2288,-0.84335 -0.843415,0 -1.807422,0.58246 -2.891813,1.74718 -1.044227,1.16471 -2.3294,2.99175 -3.855579,5.48183 -1.526179,2.49008 -2.369427,3.85593 -2.530078,4.09691 0,-0.88358 0.100461,-2.47013 0.301274,-4.7594 0.803252,-1.88764 1.204577,-3.89582 1.204577,-6.02444 0,-0.44179 -0.05986,-0.74317 -0.18035,-0.90382 -0.120488,-0.16067 -0.42187,-0.24081 -0.903821,-0.24081 -0.441789,0 -1.184578,0.38154 -2.228805,1.14463 -1.004065,0.76309 -1.707289,1.34555 -2.108915,1.74718 -0.401627,0.40163 -0.602547,1.56603 -0.602547,3.49384 v 3.55483 c 0,0.24284 -0.02442,0.62451 -0.03204,0.91054 -0.939732,1.82674 -1.987885,3.51783 -3.16053,5.05343 -0.803252,1.04423 -1.687098,1.84741 -2.651001,2.40968 -0.963902,0.56228 -2.048154,0.84336 -3.253032,0.84336 -1.204878,0 -2.269346,-0.56217 -3.193086,-1.68672 -0.883577,-1.16472 -1.405662,-2.53005 -1.566313,-4.09639 2.93187,-0.0803 5.40227,-0.9241 7.4104,-2.5306 2.048293,-1.64667 3.072164,-3.67462 3.072164,-6.08438 0,-1.2852 -0.441923,-2.28929 -1.3255,-3.01222 -0.883577,-0.76309 -2.00791,-1.14463 -3.373438,-1.14463 -2.93187,0 -5.321592,1.12432 -7.169071,3.37343 -1.556411,1.89477 -2.416642,4.59144 -2.661853,7.99693 -0.889603,1.8077 -1.787447,3.43674 -2.700094,4.71444 -1.204878,1.64669 -2.148586,2.4905 -2.831351,2.5306 -0.240975,0 -0.361219,-0.44192 -0.361219,-1.3255 0,-0.92374 0.180623,-3.09276 0.542086,-6.50658 0.401626,-3.45398 0.602547,-6.06442 0.602547,-7.83157 0,-0.84342 -0.341463,-1.54613 -1.024227,-2.1084 -0.642602,-0.56228 -1.385389,-0.84335 -2.228804,-0.84335 -0.843414,0 -1.807422,0.58246 -2.891813,1.74718 -1.044227,1.16471 -2.3294,2.99175 -3.855579,5.48183 -1.526179,2.49008 -2.369945,3.85593 -2.530595,4.09691 0,-2.12862 0.0203,-3.69539 0.06046,-4.69946 1.204878,-1.6065 2.38959,-3.91554 3.554305,-6.92774 1.164715,-3.01219 1.74718,-6.24517 1.74718,-9.69915 0,-1.40569 -0.200921,-2.55032 -0.602547,-3.4339 -0.401626,-0.88357 -0.803469,-1.3255 -1.205095,-1.3255 z m -0.481624,3.55431 c 0.441789,0 0.662492,0.84325 0.662492,2.53008 0,3.3335 -1.184712,7.47061 -3.554305,12.41061 0.16065,-3.13269 0.421951,-5.88417 0.783414,-8.25376 0.682765,-4.45805 1.385472,-6.68693 2.108399,-6.68693 z m 62.050995,0 c 0.44179,0 0.66301,0.84325 0.66301,2.53008 0,3.21301 -1.32578,8.57491 -3.97651,16.08532 0,-2.93187 0.20092,-5.88376 0.60255,-8.85579 0.44179,-3.01219 0.90401,-5.38162 1.38596,-7.10861 0.52211,-1.76715 0.96353,-2.651 1.32499,-2.651 z m -38.676195,13.13305 c 1.164715,0 1.746664,0.90363 1.746664,2.71094 0,1.80732 -0.562166,3.27363 -1.686719,4.39818 -1.08439,1.12455 -2.811485,1.88764 -5.181079,2.28927 0.08033,-2.36959 0.60241,-4.51831 1.566313,-6.44612 0.963902,-1.96797 2.14913,-2.95227 3.554821,-2.95227 z m 61.870125,0.48214 c 0.68277,0 1.46616,0.30138 2.34973,0.90382 0.92374,0.56227 1.56606,1.16451 1.92753,1.80712 -0.0402,0.40162 -0.10005,1.00388 -0.18035,1.80713 -0.0402,0.76309 -0.0808,1.30547 -0.12092,1.62677 -2.57041,6.62683 -4.51821,9.94048 -5.84358,9.94048 -1.08439,0 -1.96771,-0.72301 -2.65048,-2.16886 -0.6426,-1.44585 -0.96377,-3.2937 -0.96377,-5.54281 0,-2.24911 0.62203,-4.1969 1.86707,-5.84357 1.2852,-1.68683 2.49022,-2.53008 3.61477,-2.53008 z m 45.4241,0 c 0.68277,0 1.46564,0.30138 2.34921,0.90382 0.92374,0.56227 1.56658,1.16451 1.92805,1.80712 -0.0402,0.40162 -0.10057,1.00388 -0.18087,1.80713 -0.0402,0.76309 -0.0803,1.30547 -0.1204,1.62677 -2.57041,6.62683 -4.5182,9.94048 -5.84357,9.94048 -1.08439,0 -1.96824,-0.72301 -2.65101,-2.16886 -0.6426,-1.44585 -0.96376,-3.2937 -0.96376,-5.54281 0,-2.24911 0.62255,-4.1969 1.86759,-5.84357 1.2852,-1.68683 2.49021,-2.53008 3.61476,-2.53008 z m 45.42359,0 c 0.68276,0 1.46614,0.30138 2.34972,0.90382 0.92374,0.56227 1.56607,1.16451 1.92753,1.80712 -0.0402,0.40162 -0.10005,1.00388 -0.18035,1.80713 -0.0402,0.76309 -0.0803,1.30547 -0.1204,1.62677 -2.57041,6.62683 -4.51872,9.94048 -5.84409,9.94048 -1.08439,0 -1.96771,-0.72301 -2.65048,-2.16886 -0.6426,-1.44585 -0.96377,-3.2937 -0.96377,-5.54281 0,-2.24911 0.62255,-4.1969 1.86759,-5.84357 1.28521,-1.68683 2.4897,-2.53008 3.61425,-2.53008 z m -111.69189,0.36122 c 1.28521,0 2.22891,0.62254 2.83135,1.86758 0.6024,1.24505 0.92356,2.69105 0.96376,4.33772 -1.56634,0 -2.91138,-0.40184 -4.03593,-1.20509 -1.08439,-0.84341 -1.62677,-1.88758 -1.62677,-3.13263 0,-0.56227 0.16084,-1.00368 0.48214,-1.32498 0.36147,-0.36147 0.82318,-0.5426 1.38545,-0.5426 z m -4.21732,4.7594 c 0.44179,1.24504 1.26525,2.22882 2.47013,2.95175 1.24504,0.68277 2.36937,1.02423 3.37344,1.02423 1.04423,0 1.72716,-0.0198 2.04846,-0.0599 -0.3213,2.65073 -1.16455,4.57822 -2.53008,5.7831 -1.32537,1.16471 -2.69122,1.74718 -4.09691,1.74718 -0.88357,0 -1.5259,-0.66262 -1.92753,-1.98799 -0.40163,-1.32536 -0.64265,-3.51416 -0.72295,-6.56652 0.52211,-0.92374 0.98381,-1.88774 1.38544,-2.89181 z" /><path
       id="path62"
       style="font-size:60.2439px;font-family:Cookie;-inkscape-font-specification:'Cookie, @wght=700,wdth=100';font-variation-settings:'wdth' 100, 'wght' 700;display:inline;stroke-width:6.27581;stroke-linejoin:round"
       d="m 38.280868,128.22525 c -1.365529,0 -2.409699,0.54238 -3.132626,1.62677 -0.682764,1.04423 -1.02371,2.3091 -1.02371,3.79512 0,1.44585 0.401326,2.73103 1.204578,3.85558 0.803252,1.12455 1.947883,1.88763 3.433899,2.28926 -0.441789,2.16878 -1.064335,4.01612 -1.867587,5.5423 -0.803252,1.48602 -1.787042,2.22932 -2.951757,2.22932 -0.803252,0 -1.546558,-0.60276 -2.229322,-1.80764 -0.642601,-1.24504 -1.043926,-2.75092 -1.204577,-4.51807 1.08439,-3.05236 1.626257,-5.60292 1.626257,-7.65121 0,-0.76309 -0.08016,-1.24458 -0.240812,-1.44539 -0.120488,-0.20081 -0.341191,-0.30128 -0.662492,-0.30128 -1.004065,0 -1.867613,0.66263 -2.59054,1.988 -0.722927,1.32537 -1.20493,2.65061 -1.445906,3.97598 -0.240975,1.2852 -0.361735,2.51 -0.361735,3.67471 0,1.12455 0.10046,2.18902 0.301273,3.19309 -1.164716,1.92781 -2.148505,2.89181 -2.951757,2.89181 -0.803252,0 -1.285307,-0.73666 -1.867587,-2.04845 -2.118497,-4.77265 -0.183941,-11.45814 0.94878,-13.65705 0.47486,-0.6994 0.807014,-1.02761 2.357478,-2.1146 -0.166901,-0.46237 -0.448403,-0.79561 -0.802018,-1.06815 -0.445046,0.80116 -1.96043,1.38344 -3.055627,1.5813 -0.779775,0.11822 -1.431984,0.22494 -2.021582,0.67386 -1.734703,1.32081 -3.484192,4.77403 -3.486092,9.6361 -0.0026,6.42602 2.966377,9.94875 6.299873,9.94875 1.767155,0 3.474468,-1.22479 5.121135,-3.67471 0.923739,2.44992 2.429615,3.67471 4.51807,3.67471 2.088455,0 3.81555,-0.98379 5.181079,-2.95176 1.365528,-2.00813 2.369618,-4.49831 3.01222,-7.47034 3.941722,0 6.508171,-1.87975 8.012431,-3.55431 0.522114,-0.56227 0.782897,-1.04427 0.782897,-1.4459 0,-0.40163 -0.140541,-0.60255 -0.421679,-0.60255 -0.240976,0 -0.72298,0.36176 -1.445907,1.08469 -1.18441,1.1844 -2.753926,2.16834 -4.698938,2.16834 -0.562277,0 -1.144741,-0.1 -1.74718,-0.30076 0.120492,-1.12455 0.180868,-2.20931 0.180868,-3.25354 0,-3.97609 -0.923927,-5.96398 -2.771407,-5.96398 z m -0.42168,2.28926 c 0.923739,0 1.385962,1.64642 1.385962,4.93975 0,0.40163 -0.0203,0.70302 -0.06046,0.90383 -1.245041,-1.16471 -1.867586,-2.42959 -1.867586,-3.79512 0,-1.36553 0.180623,-2.04846 0.542086,-2.04846 z" /></g></svg>
