<svg xmlns="http://www.w3.org/2000/svg" xml:space="preserve" width="855.4" height="137.8" viewBox="0 0 226.3 36.45"><g stroke-linejoin="round" stroke-width="6.28"><style>@media(prefers-color-scheme:dark){path{fill:#fff}}</style><path d="M54.31 114.1q-1.33 0-2.59.96-5.48 4.22-5.48 19.64v3.5q0 2.04-.36 6.14-.3 4.05-.3 4.76 0 .66 1.32 1.09 1.32.36 2.77.36.96 0 .97-1.69l-.06-1.87q0-1.87.36-3.97.18-1.15 3.13-5.24 2.95-4.16 3.61-4.16.73 0 .73 1.99c0 1.99-.12 3.33-.36 6.02q-.3 3.98-.3 5.78 0 1.76.42 2.17 1.2.97 3.55.97c1.77 0 3.89-2.3 6.33-6.8a9.4 9.4 0 0 0 1.86 4.27 6.5 6.5 0 0 0 5.36 2.53q5.85 0 9.82-6.45c.22-.36.38-.67.58-1.01-.03.43-.05.77-.1 1.25q-.3 4.04-.3 4.76 0 .66 1.33 1.09 1.33.36 2.77.36.97 0 .97-1.69l-.06-1.87q0-1.86.36-3.97.18-1.15 3.13-5.25 2.95-4.15 3.62-4.15.72 0 .72 1.99c0 1.99-.12 3.33-.36 6.02q-.3 3.98-.3 5.78 0 1.76.42 2.17 1.2.96 3.55.97 2.8-.01 6.68-7.45c.19 2 .52 3.64 1.03 4.8q1.2 2.64 4.82 2.65 3.61 0 7.23-2.9 3.62-2.95 4.34-8.31a23 23 0 0 0 4.52-2.13 15 15 0 0 0-.54 4q0 4.82 1.8 7.1 1.8 2.24 4.22 2.23a4.8 4.8 0 0 0 3.92-1.86 23 23 0 0 0 3.13-5.85 117 117 0 0 0-.12 4.64q0 1.7.42 2.11 1.2.96 3.55.96 2.61-.02 6.17-6.5l-.02.3q-.3 4.04-.3 4.76 0 .66 1.32 1.08 1.33.36 2.77.36.97 0 .97-1.68l-.06-1.87q0-1.87.36-3.98.18-1.14 3.13-5.24 2.95-4.16 3.62-4.16.72 0 .72 2c0 2-.12 3.33-.36 6.02q-.3 3.98-.3 5.78 0 1.75.42 2.17 1.2.96 3.55.96 2.77-.01 6.61-7.3.31 3.3 1.7 5.07 1.82 2.23 4.22 2.23a4.8 4.8 0 0 0 3.92-1.86 23 23 0 0 0 3.13-5.85 117 117 0 0 0-.12 4.64q0 1.7.42 2.1 1.21.97 3.56.97 2.6-.02 6.17-6.5l-.03.3q-.3 4.03-.3 4.76 0 .66 1.33 1.08 1.32.36 2.77.36.96 0 .96-1.68l-.06-1.87q0-1.87.36-3.98.18-1.13 3.14-5.24 2.94-4.16 3.61-4.16.72 0 .72 2c0 2-.12 3.33-.36 6.02q-.3 3.97-.3 5.78 0 1.74.42 2.17 1.21.96 3.56.96 2.76-.01 6.6-7.3.32 3.3 1.71 5.07 1.8 2.23 4.22 2.23a4.8 4.8 0 0 0 3.92-1.87 23 23 0 0 0 3.13-5.84 117 117 0 0 0-.12 4.64q0 1.69.42 2.1 1.2.97 3.55.97c4.61 0 7.27-12.32 3.62-5.6q-1.8 2.47-2.83 2.53-.36 0-.36-1.63 0-8.44.54-9.82a9 9 0 0 0 .72-2.53q.36-1.75.36-2.35 0-2.28-.9-2.29-.85 0-2.1.97a8 8 0 0 0-1.7 1.56q-2.4-2.53-4.33-2.53a8.6 8.6 0 0 0-7.23 3.74 14 14 0 0 0-2.6 7.01 36 36 0 0 1-3 5.34q-1.82 2.46-2.84 2.53-.36 0-.36-1.33 0-1.39.54-6.5.6-5.19.6-7.84 0-1.26-1.02-2.1-.96-.85-2.23-.85c-1.27 0-1.8.58-2.89 1.75q-1.57 1.75-3.85 5.48a105 105 0 0 1-2.54 4.1q0-1.33.3-4.76 1.2-2.83 1.21-6.03 0-.66-.18-.9t-.9-.24q-.67 0-2.23 1.15-1.5 1.14-2.11 1.74c-.61.6-.6 1.57-.6 3.5v3.55c0 .47-.04 1.14-.07 1.77a35 35 0 0 1-2.83 4.98q-1.8 2.47-2.83 2.53-.36 0-.36-1.63 0-8.44.54-9.82a9 9 0 0 0 .73-2.53q.36-1.75.36-2.35 0-2.29-.9-2.29-.85 0-2.11.97a8 8 0 0 0-1.69 1.56q-2.4-2.53-4.34-2.53a8.6 8.6 0 0 0-7.23 3.74 14 14 0 0 0-2.6 7.01 36 36 0 0 1-3 5.34q-1.8 2.47-2.83 2.53-.36 0-.36-1.33 0-1.39.54-6.5.6-5.19.6-7.84 0-1.26-1.02-2.1-.96-.85-2.23-.85c-1.27 0-1.8.58-2.9 1.75q-1.56 1.75-3.85 5.48a212 212 0 0 1-2.53 4.1q0-1.33.3-4.76 1.2-2.84 1.2-6.03 0-.66-.17-.9t-.9-.24q-.68 0-2.24 1.15-1.5 1.14-2.1 1.74t-.6 3.5v3.55c0 .47-.04 1.14-.07 1.77a35 35 0 0 1-2.83 4.98q-1.8 2.47-2.83 2.53-.36 0-.36-1.63 0-8.44.54-9.82a9 9 0 0 0 .72-2.53q.37-1.75.37-2.35 0-2.28-.9-2.29-.85 0-2.12.97-1.2.9-1.68 1.56-2.42-2.53-4.34-2.53a8.6 8.6 0 0 0-7.23 3.74q-.8 1.11-1.35 2.33c-.33.16-.32.14-.88.44q-1.86 1.02-4.34 1.75-.06-3.62-1.87-5.6a5.8 5.8 0 0 0-4.57-2.06 8 8 0 0 0-2.9.49 42 42 0 0 0 1.7-10.84q0-2.12-.55-3.56-.48-1.44-1.09-1.44-1.26 0-2.7 1.62a18 18 0 0 0-2.72 4.58 34 34 0 0 0-2.17 8.13q-.84 5.19-.84 10.96l.01.42a36 36 0 0 1-2.9 5.13q-1.8 2.46-2.83 2.53-.36 0-.36-1.33 0-1.39.54-6.5.6-5.19.6-7.84 0-1.26-1.02-2.1a3.3 3.3 0 0 0-2.23-.85q-1.27 0-2.9 1.75-1.56 1.74-3.85 5.48c-2.3 3.74-2.37 3.86-2.53 4.1q0-1.33.3-4.76 1.2-2.83 1.2-6.03 0-.66-.18-.9t-.9-.24q-.66 0-2.23 1.14-1.5 1.15-2.1 1.75t-.6 3.5v3.55c0 .24-.03.63-.04.91a34 34 0 0 1-3.16 5.05 9 9 0 0 1-2.65 2.41q-1.45.85-3.26.85c-1.8 0-2.27-.56-3.19-1.69a8 8 0 0 1-1.57-4.1q4.4-.12 7.41-2.53a7.5 7.5 0 0 0 3.08-6.08q0-1.93-1.33-3.01-1.32-1.15-3.37-1.15a8.9 8.9 0 0 0-7.17 3.38q-2.32 2.87-2.66 8a35 35 0 0 1-2.7 4.7q-1.8 2.48-2.83 2.54-.37 0-.37-1.33 0-1.39.55-6.5.6-5.19.6-7.84 0-1.26-1.03-2.1a3.3 3.3 0 0 0-2.22-.85q-1.27 0-2.9 1.75-1.56 1.74-3.85 5.48c-2.3 3.74-2.37 3.86-2.53 4.1q0-3.2.06-4.7a30 30 0 0 0 3.55-6.93 27 27 0 0 0 1.75-9.7q0-2.1-.6-3.43t-1.2-1.33zm-.48 3.55q.66 0 .66 2.53 0 5-3.55 12.41.24-4.7.78-8.25 1.03-6.69 2.1-6.69zm62.05 0q.66 0 .66 2.53 0 4.83-3.98 16.1a66 66 0 0 1 2-15.97q.78-2.65 1.32-2.65zM77.2 130.78q1.75 0 1.75 2.71 0 2.72-1.7 4.4-1.62 1.7-5.17 2.3.12-3.57 1.56-6.45 1.45-2.96 3.56-2.96m61.87.49q1.02 0 2.35.9a5.3 5.3 0 0 1 1.93 1.8l-.18 1.81q-.06 1.15-.12 1.63-3.86 9.94-5.85 9.94-1.62 0-2.65-2.17-.96-2.17-.96-5.54c0-3.37.62-4.2 1.86-5.85q1.94-2.53 3.62-2.53zm45.42 0q1.02 0 2.35.9a5.3 5.3 0 0 1 1.93 1.8l-.19 1.81q-.06 1.15-.12 1.63-3.85 9.94-5.84 9.94-1.62 0-2.65-2.17-.96-2.17-.96-5.54c0-3.37.62-4.2 1.86-5.85q1.94-2.53 3.62-2.53zm45.42 0q1.02 0 2.35.9a5.3 5.3 0 0 1 1.93 1.8l-.18 1.81q-.06 1.15-.12 1.63-3.86 9.94-5.85 9.94-1.62 0-2.65-2.17-.96-2.17-.96-5.54c0-3.37.62-4.2 1.87-5.85q1.92-2.53 3.61-2.53zm-111.7.36q1.93 0 2.83 1.87t.96 4.33q-2.34 0-4.03-1.2a3.8 3.8 0 0 1-1.63-3.13q0-.84.48-1.33.55-.54 1.39-.54m-4.22 4.76a5.5 5.5 0 0 0 2.47 2.95 7 7 0 0 0 3.37 1.02q1.57 0 2.05-.06-.48 3.97-2.53 5.79a6.2 6.2 0 0 1-4.1 1.74q-1.32 0-1.92-1.99-.6-1.98-.73-6.56.8-1.4 1.39-2.9z" transform="translate(-16.26 -114.1)"/><path d="M38.28 128.2q-2.05 0-3.13 1.63a7 7 0 0 0-1.03 3.8q0 2.16 1.2 3.85c1.2 1.69 1.96 1.89 3.44 2.29a21 21 0 0 1-1.87 5.54q-1.2 2.22-2.95 2.23-1.2 0-2.23-1.81a12 12 0 0 1-1.2-4.52q1.62-4.57 1.62-7.65 0-1.14-.24-1.44-.18-.3-.66-.3-1.5 0-2.59 1.98c-1.09 1.98-1.2 2.65-1.45 3.98a20 20 0 0 0-.36 3.67q0 1.7.3 3.2-1.74 2.88-2.95 2.89c-1.2 0-1.28-.74-1.87-2.05-2.11-4.77-.18-11.46.95-13.66.48-.7.8-1.03 2.36-2.11a2.3 2.3 0 0 0-.8-1.07c-.45.8-1.96 1.38-3.06 1.58-.78.12-1.43.22-2.02.67-1.74 1.32-3.48 4.78-3.49 9.64 0 6.42 2.97 9.95 6.3 9.95q2.66 0 5.12-3.68 1.39 3.68 4.52 3.68c3.13 0 3.82-.99 5.18-2.95q2.05-3.01 3.02-7.47c3.94 0 6.5-1.88 8-3.56q.8-.84.79-1.44c-.01-.6-.14-.6-.42-.6q-.36 0-1.45 1.08a6.7 6.7 0 0 1-4.7 2.17q-.84 0-1.74-.3.18-1.69.18-3.26 0-5.96-2.77-5.96m-.42 2.29q1.38 0 1.38 4.94 0 .6-.06.9-1.86-1.74-1.86-3.8c0-2.05.18-2.04.54-2.04" transform="translate(-16.26 -114.1)"/></g><path d="M259.9 7.47a3 3 0 0 0-2.66 1.38 6 6 0 0 0-.87 3.22 5.5 5.5 0 0 0 1.02 3.28q1.02 1.43 2.92 1.94-.56 2.76-1.59 4.7-1.02 1.9-2.5 1.9-1.03 0-1.9-1.53a10 10 0 0 1-1.02-3.84 20 20 0 0 0 1.38-6.5q0-.98-.2-1.23-.16-.25-.57-.25-1.28 0-2.2 1.68a11 11 0 0 0-1.23 3.38q-.3 1.64-.3 3.12 0 1.44.25 2.72-1.48 2.45-2.5 2.45c-1.03 0-1.1-.62-1.6-1.74-1.8-4.05-.15-9.73.81-11.6.4-.59.69-.87 2-1.8q-.22-.56-.68-.9c-.37.68-1.66 1.18-2.6 1.34-.65.1-1.2.2-1.7.58-1.48 1.12-2.97 4.05-2.97 8.18 0 5.46 2.52 8.45 5.35 8.45q2.25 0 4.35-3.12 1.18 3.12 3.84 3.12c2.66 0 3.24-.83 4.4-2.5a18 18 0 0 0 2.56-6.35 9 9 0 0 0 6.8-3.02q.67-.72.67-1.23c0-.5-.12-.51-.35-.51q-.31 0-1.23.92c-1 1-2.34 1.84-4 1.84q-.71 0-1.48-.25.15-1.44.15-2.77 0-5.06-2.35-5.06m-.36 1.94q1.18 0 1.18 4.2 0 .51-.05.76a4.4 4.4 0 0 1-1.59-3.22q0-1.74.46-1.74"/></svg>
